<?xml version="1.0" encoding="utf-8"?>
<!-- Generator: Adobe Illustrator 15.1.0, SVG Export Plug-In . SVG Version: 6.00 Build 0)  -->
<!DOCTYPE svg PUBLIC "-//W3C//DTD SVG 1.1//EN" "http://www.w3.org/Graphics/SVG/1.1/DTD/svg11.dtd">
<svg version="1.1" id="Layer_1" xmlns="http://www.w3.org/2000/svg" xmlns:xlink="http://www.w3.org/1999/xlink" x="0px" y="0px"
	 width="200px" height="200px" viewBox="0 0 200 200" enable-background="new 0 0 200 200" xml:space="preserve">
<g>
	<path d="M88.926,79.098c5.786-5.745,13.751-9.598,24.304-9.598c22.932,0,39.004,19.208,39.004,49.196
		c0,32.144-20.58,52.724-51.156,52.724c-22.147,0-31.948-5.88-47.432-5.88V25.399c11.76,0,23.52-3.265,35.28-4.9V79.098z
		 M88.924,145.008c2.775,0.588,5.488,0.932,8.038,0.932c10.78,0,18.032-9.996,18.032-25.088c0-15.68-4.899-23.912-12.936-23.912
		c-7.448,0-12.936,7.252-12.936,15.876h-0.196L88.924,145.008z"/>
</g>
</svg>
