<?xml version="1.0" encoding="utf-8"?>
<!-- Generator: Adobe Illustrator 15.1.0, SVG Export Plug-In . SVG Version: 6.00 Build 0)  -->
<!DOCTYPE svg PUBLIC "-//W3C//DTD SVG 1.1//EN" "http://www.w3.org/Graphics/SVG/1.1/DTD/svg11.dtd">
<svg version="1.1" id="Layer_1" xmlns="http://www.w3.org/2000/svg" xmlns:xlink="http://www.w3.org/1999/xlink" x="0px" y="0px"
	 width="200px" height="200px" viewBox="0 0 200 200" enable-background="new 0 0 200 200" xml:space="preserve">
<g>
	<g>
		<path fill="#081D23" d="M147.677,94.53l-8.679,8.679c-11.637,11.635-30.568,11.635-42.206,0
			c-3.286-3.288-5.643-7.156-7.073-11.277c-2.25-0.615-4.597-0.94-6.996-0.94c-4.638,0-9.085,1.194-13.001,3.424
			c2.127,8.383,6.455,16.316,13.001,22.861c19.393,19.395,50.95,19.395,70.343,0l8.679-8.678L147.677,94.53z"/>
	</g>
	<path fill="#081D23" d="M181.204,18.796c-19.396-19.394-50.95-19.393-70.343,0l-8.18,8.179l-11.281,11.28l-8.679,8.679
		c-5.361,5.361-9.232,11.653-11.629,18.359c3.775-0.834,7.667-1.277,11.629-1.277c3.626,0,7.195,0.363,10.669,1.062
		c0.996-1.431,2.124-2.799,3.399-4.076l8.679-8.678l11.28-11.28l8.179-8.178c11.637-11.636,30.57-11.636,42.206,0
		c11.636,11.636,11.636,30.57,0,42.205l-8.18,8.181l14.069,14.067l8.179-8.179C200.598,69.746,200.598,38.191,181.204,18.796z"/>
	<g>
		<path fill="#081D23" d="M61.621,96.174c11.635-11.636,30.569-11.636,42.206,0c3.306,3.306,5.67,7.203,7.098,11.354
			c2.165,0.565,4.418,0.863,6.718,0.863c4.726,0,9.252-1.238,13.221-3.549c-2.139-8.336-6.453-16.224-12.967-22.738
			c-19.395-19.394-50.951-19.394-70.343,0l-8.679,8.679l14.068,14.068L61.621,96.174z"/>
		<path fill="#081D23" d="M117.641,135.368c-3.55,0-7.045-0.345-10.447-1.017c-0.988,1.414-2.104,2.767-3.366,4.027l-8.679,8.68
			l-11.28,11.279l-8.178,8.18c-11.636,11.635-30.571,11.635-42.207,0c-11.635-11.636-11.635-30.57,0-42.205l8.179-8.18
			l-14.069-14.068l-8.178,8.179c-19.394,19.394-19.394,50.948,0,70.344c19.395,19.394,50.949,19.394,70.344,0l8.178-8.179
			l11.28-11.28l8.68-8.68c5.377-5.378,9.258-11.69,11.652-18.421c-3.861,0.877-7.845,1.341-11.902,1.341
			C117.645,135.368,117.643,135.368,117.641,135.368z"/>
	</g>
</g>
</svg>
