<?xml version="1.0" encoding="utf-8"?>
<!-- Generator: Adobe Illustrator 15.1.0, SVG Export Plug-In . SVG Version: 6.00 Build 0)  -->
<!DOCTYPE svg PUBLIC "-//W3C//DTD SVG 1.1//EN" "http://www.w3.org/Graphics/SVG/1.1/DTD/svg11.dtd">
<svg version="1.1" id="Layer_1" xmlns="http://www.w3.org/2000/svg" xmlns:xlink="http://www.w3.org/1999/xlink" x="0px" y="0px"
	 width="200px" height="200px" viewBox="0 0 200 200" enable-background="new 0 0 200 200" xml:space="preserve">
<g>
	<rect x="134.573" y="40.738" fill="#231F20" width="45.86" height="15.287"/>
	<g>
		<path fill="#231F20" d="M8.28,55.175v91.72h57.464c-9.745-9.146-15.851-22.129-15.851-36.52c0-27.628,22.477-50.106,50.106-50.106
			c27.63,0,50.106,22.478,50.106,50.106c0,14.391-6.105,27.373-15.852,36.52h57.465v-91.72H8.28z"/>
	</g>
	<path fill="#231F20" d="M100,72.521c-20.875,0-37.855,16.982-37.855,37.855c0,20.875,16.98,37.855,37.855,37.855
		s37.856-16.98,37.856-37.855C137.856,89.503,120.875,72.521,100,72.521z"/>
</g>
</svg>
